<svg xmlns="http://www.w3.org/2000/svg" xmlns:xlink="http://www.w3.org/1999/xlink" contentStyleType="text/css" data-diagram-type="DESCRIPTION" height="421px" preserveAspectRatio="none" style="width:927px;height:421px;background:#FFFFFF;" version="1.1" viewBox="0 0 927 421" width="927px" zoomAndPan="magnify"><defs><filter height="300%" id="frzx73r55vz57" width="300%" x="-1" y="-1"><feGaussianBlur result="blurOut" stdDeviation="2"/><feColorMatrix in="blurOut" result="blurOut2" type="matrix" values="0 0 0 0 0 0 0 0 0 0 0 0 0 0 0 0 0 0 .4 0"/><feOffset dx="4" dy="4" in="blurOut2" result="blurOut3"/><feBlend in="SourceGraphic" in2="blurOut3" mode="normal"/></filter></defs><g><!--cluster <b>WaniKani MCP Server</b>--><g class="cluster" data-entity="&lt;b&gt;WaniKani MCP Server&lt;/b&gt;" data-source-line="35" data-uid="ent0003" id="cluster_&lt;b&gt;WaniKani MCP Server&lt;/b&gt;"><path d="M308.5,6 L480.4395,6 A3.75,3.75 0 0 1 482.9395,8.5 L489.9395,28.2969 L505.5,28.2969 A2.5,2.5 0 0 1 508,30.7969 L508,351.5 A2.5,2.5 0 0 1 505.5,354 L308.5,354 A2.5,2.5 0 0 1 306,351.5 L306,8.5 A2.5,2.5 0 0 1 308.5,6" fill="none" filter="url(#frzx73r55vz57)" style="stroke:#00796B;stroke-width:3;"/><line style="stroke:#00796B;stroke-width:3;" x1="306" x2="489.9395" y1="28.2969" y2="28.2969"/><text fill="#00796B" font-family="sans-serif" font-size="14" font-weight="bold" lengthAdjust="spacing" textLength="170.9395" x="310" y="20.9951">WaniKani MCP Server</text></g><!--cluster Externals--><g class="cluster" data-entity="Externals" data-source-line="42" data-uid="ent0008" id="cluster_Externals"><rect fill="none" filter="url(#frzx73r55vz57)" height="178" rx="2.5" ry="2.5" style="stroke:#00796B;stroke-width:1;" width="192" x="723" y="231"/><path d="M807.2314,231 L807.2314,240.2969 L797.2314,250.2969 L723,250.2969" fill="none" style="stroke:#00796B;stroke-width:1;"/><text fill="#000000" font-family="sans-serif" font-size="14" font-weight="bold" lengthAdjust="spacing" textLength="74.2314" x="726" y="244.9951">Externals</text></g><!--entity Transport--><g class="entity" data-entity="Transport" data-source-line="36" data-uid="ent0004" id="entity_Transport"><ellipse cx="407.1129" cy="64.0929" fill="#ECEFF1" rx="64.6129" ry="23.0929" style="stroke:#00796B;stroke-width:0.5;"/><text fill="#000000" font-family="sans-serif" font-size="14" font-weight="bold" lengthAdjust="spacing" textLength="60.3408" x="376.9425" y="59.3707">FastAPI</text><text fill="#000000" font-family="sans-serif" font-size="12" lengthAdjust="spacing" textLength="92.8066" x="360.7096" y="73.8111">HTTP Transport</text></g><!--entity Auth--><g class="entity" data-entity="Auth" data-source-line="37" data-uid="ent0005" id="entity_Auth"><ellipse cx="407.1894" cy="146.2179" fill="#ECEFF1" rx="85.1894" ry="24.2179" style="stroke:#00796B;stroke-width:0.5;"/><text fill="#000000" font-family="sans-serif" font-size="14" font-weight="bold" lengthAdjust="spacing" textLength="117.2363" x="348.5712" y="144.1421">Authentication</text><text fill="#000000" font-family="sans-serif" font-size="12" lengthAdjust="spacing" textLength="109.1543" x="352.6122" y="158.5825">API Key Validation</text></g><!--entity Core--><g class="entity" data-entity="Core" data-source-line="38" data-uid="ent0006" id="entity_Core"><ellipse cx="406.7921" cy="313.8323" fill="#ECEFF1" rx="70.2921" ry="23.8323" style="stroke:#00796B;stroke-width:0.5;"/><text fill="#000000" font-family="sans-serif" font-size="14" font-weight="bold" lengthAdjust="spacing" textLength="82.8242" x="365.38" y="310.209">Core Logic</text><text fill="#000000" font-family="sans-serif" font-size="12" lengthAdjust="spacing" textLength="97.7637" x="357.9103" y="324.6494">Leech Detection</text></g><!--entity Scheduler--><g class="entity" data-entity="Scheduler" data-source-line="39" data-uid="ent0007" id="entity_Scheduler"><ellipse cx="406.7723" cy="229.8478" fill="#ECEFF1" rx="76.7723" ry="24.3478" style="stroke:#00796B;stroke-width:0.5;"/><text fill="#000000" font-family="sans-serif" font-size="14" font-weight="bold" lengthAdjust="spacing" textLength="100.126" x="356.7093" y="226.9648">APScheduler</text><text fill="#000000" font-family="sans-serif" font-size="12" lengthAdjust="spacing" textLength="104.5898" x="354.4774" y="241.4053">Background Sync</text></g><!--entity WaniKani--><g class="entity" data-entity="WaniKani" data-source-line="43" data-uid="ent0009" id="entity_WaniKani"><path d="M747.4423,275.4032 C750.3751,270.391 756.1669,270.4157 759.3205,275.1337 C763.0311,269.1749 767.4301,268.928 771.279,274.9961 C773.5144,267.6999 779.969,268.3026 784.0315,273.0637 C787.2093,266.7723 793.233,266.5474 796.9008,272.5509 C800.0109,267.1884 804.3766,267.3444 807.6198,272.4141 C810.2259,266.7852 816.283,264.5894 820.369,270.8236 C823.9737,264.9737 829.7563,264.4023 832.8906,271.2861 C837.0075,266.8826 842.1526,268.1264 844.378,273.5069 C847.7378,268.0385 852.998,268.1327 855.7646,274.0977 C859.1678,268.1621 864.2158,269.8428 867.1372,274.6097 C871.0614,269.6796 875.0897,269.0473 879.1567,274.4436 C882.8393,269.3865 887.0695,268.1317 891.0771,274.0919 C901.8514,274.0371 907.5758,280.3974 901.9111,290.9238 C904.573,299.7028 902.0152,305.4263 891.7617,304.6677 C888.5526,310.9123 883.1336,311.7327 878.798,305.8743 C876.1004,312.6498 871.0998,313.5513 866.7386,307.4299 C864.9623,312.7891 860.4444,313.4433 856.711,309.5514 C853.5427,315.6856 848.9903,318.0248 843.7142,311.7612 C840.511,318.3248 834.254,317.3561 831.1636,311.6459 C829.1825,318.596 823.5906,319.4059 818.9087,314.4186 C814.7451,319.4577 811.3752,318.0639 808.3503,313.2041 C803.1286,318.3461 796.8933,317.9247 795.0114,309.8368 C792.3752,314.2981 787.3191,315.168 784.8129,309.7033 C780.8257,315.5311 775.371,314.3768 772.6259,308.4189 C767.2022,313.3179 761.9681,313.2135 759.0594,305.6756 C755.1384,311.0354 750.8503,311.0399 747.1045,305.4837 C739.0517,303.7898 737.3304,297.4056 741.978,291.1647 C735.1889,283.9135 739.0237,277.3822 747.4423,275.4032" fill="#F5F5F5" filter="url(#frzx73r55vz57)" style="stroke:#9E9E9E;stroke-width:0.5;"/><text fill="#000000" font-family="sans-serif" font-size="14" font-weight="bold" lengthAdjust="spacing" textLength="129.6367" x="754" y="293.9951">WaniKani v2 API</text></g><!--entity DB--><g class="entity" data-entity="DB" data-source-line="44" data-uid="ent0010" id="entity_DB"><path d="M749.5,357.5 C749.5,347.5 819.1982,347.5 819.1982,347.5 C819.1982,347.5 888.8965,347.5 888.8965,357.5 L888.8965,382.7969 C888.8965,392.7969 819.1982,392.7969 819.1982,392.7969 C819.1982,392.7969 749.5,392.7969 749.5,382.7969 L749.5,357.5" fill="#E3F2FD" filter="url(#frzx73r55vz57)" style="stroke:#1E88E5;stroke-width:0.5;"/><path d="M749.5,357.5 C749.5,367.5 819.1982,367.5 819.1982,367.5 C819.1982,367.5 888.8965,367.5 888.8965,357.5" fill="none" style="stroke:#1E88E5;stroke-width:0.5;"/><text fill="#000000" font-family="sans-serif" font-size="14" font-weight="bold" lengthAdjust="spacing" textLength="119.3965" x="759.5" y="384.4951">PostgreSQL DB</text></g><!--entity Assistant--><g class="entity" data-entity="Assistant" data-source-line="33" data-uid="ent0002" id="entity_Assistant"><ellipse cx="58.0781" cy="26" fill="#E3F2FD" filter="url(#frzx73r55vz57)" rx="8" ry="8" style="stroke:#42A5F5;stroke-width:0.5;"/><path d="M58.0781,34 L58.0781,61 M45.0781,42 L71.0781,42 M58.0781,61 L45.0781,76 M58.0781,61 L71.0781,76" fill="none" filter="url(#frzx73r55vz57)" style="stroke:#42A5F5;stroke-width:0.5;"/><text fill="#000000" font-family="sans-serif" font-size="14" font-weight="bold" lengthAdjust="spacing" textLength="94.3496" x="6" y="93.4951">AI Assistant</text><text fill="#000000" font-family="sans-serif" font-size="12" lengthAdjust="spacing" textLength="104.1563" x="6" y="107.9355">Initiates requests</text></g><!--link Assistant to Transport--><g class="link" data-entity-1="Assistant" data-entity-2="Transport" data-source-line="48" data-uid="lnk11" id="link_Assistant_Transport"><path d="M110.2,64 C171.85,64 269.41,64 336.2,64" fill="none" id="Assistant-to-Transport" style="stroke:#42A5F5;stroke-width:1;"/><polygon fill="#42A5F5" points="342.2,64,333.2,60,337.2,64,333.2,68,342.2,64" style="stroke:#42A5F5;stroke-width:1;"/><text fill="#000000" font-family="sans-serif" font-size="14" font-weight="bold" lengthAdjust="spacing" textLength="15.0596" x="141" y="59.9951">1.</text><text fill="#000000" font-family="sans-serif" font-size="14" lengthAdjust="spacing" textLength="129.4521" x="160.5098" y="59.9951">JSON-RPC Request</text></g><!--link Transport to Assistant--><g class="link" data-entity-1="Transport" data-entity-2="Assistant" data-source-line="49" data-uid="lnk12" id="link_Transport_Assistant"><path d="M355.3,77.91 C335.15,82.77 311.64,87.6 290,90 C223.74,97.33 205.86,100.31 140,90 C130.22,88.47 125.7758,87.6543 116.0258,84.7843" fill="none" id="Transport-to-Assistant" style="stroke:#42A5F5;stroke-width:1;"/><polygon fill="#42A5F5" points="110.27,83.09,117.7742,89.4686,115.0665,84.5019,120.0332,81.7942,110.27,83.09" style="stroke:#42A5F5;stroke-width:1;"/><text fill="#000000" font-family="sans-serif" font-size="14" font-weight="bold" lengthAdjust="spacing" textLength="15.0596" x="151" y="85.9951">4.</text><text fill="#000000" font-family="sans-serif" font-size="14" lengthAdjust="spacing" textLength="109.04" x="170.5098" y="85.9951">Processed Data</text></g><!--link Core to WaniKani--><g class="link" data-entity-1="Core" data-entity-2="WaniKani" data-source-line="51" data-uid="lnk13" id="link_Core_WaniKani"><path d="M467.55,326.5 C528.29,337.22 625,348.66 707,333 C707.79,332.85 728.0745,324.8168 754.6345,314.2568" fill="none" id="Core-to-WaniKani" style="stroke:#9E9E9E;stroke-width:1;"/><polygon fill="#9E9E9E" points="760.21,312.04,750.3689,311.6481,755.5638,313.8873,753.3246,319.0821,760.21,312.04" style="stroke:#9E9E9E;stroke-width:1;"/><text fill="#000000" font-family="sans-serif" font-size="14" font-weight="bold" lengthAdjust="spacing" textLength="24.5068" x="559" y="328.9951">2a.</text><text fill="#000000" font-family="sans-serif" font-size="14" lengthAdjust="spacing" textLength="84.0957" x="587.957" y="328.9951">API Request</text></g><!--link WaniKani to Core--><g class="link" data-entity-1="WaniKani" data-entity-2="Core" data-source-line="53" data-uid="lnk15" id="link_WaniKani_Core"><path d="M738.97,293.82 C662.89,298.46 554.9888,305.0343 482.6088,309.4543" fill="none" id="WaniKani-to-Core" style="stroke:#9E9E9E;stroke-width:1;"/><polygon fill="#9E9E9E" points="476.62,309.82,485.8471,313.264,481.6107,309.5152,485.3595,305.2789,476.62,309.82" style="stroke:#9E9E9E;stroke-width:1;"/><text fill="#000000" font-family="sans-serif" font-size="14" lengthAdjust="spacing" textLength="137.792" x="547" y="291.9951">Raw WaniKani Data</text></g><!--link Scheduler to WaniKani--><g class="link" data-entity-1="Scheduler" data-entity-2="WaniKani" data-source-line="52" data-uid="lnk14" id="link_Scheduler_WaniKani"><path d="M479.09,238.77 C539.74,246.43 629.21,258.14 707,270 C717.34,271.58 722.291,272.3372 733.011,274.1172" fill="none" id="Scheduler-to-WaniKani" style="stroke:#9E9E9E;stroke-width:1;stroke-dasharray:7.0,7.0;"/><polygon fill="#9E9E9E" points="738.93,275.1,730.7068,269.6798,733.9975,274.281,729.3964,277.5718,738.93,275.1" style="stroke:#9E9E9E;stroke-width:1;"/><text fill="#000000" font-family="sans-serif" font-size="14" font-weight="bold" lengthAdjust="spacing" textLength="25.0811" x="543" y="240.9951">2b.</text><text fill="#000000" font-family="sans-serif" font-size="14" lengthAdjust="spacing" textLength="115.9033" x="572.5313" y="240.9951">Automated Sync</text></g><!--link Core to DB--><g class="link" data-entity-1="Core" data-entity-2="DB" data-source-line="55" data-uid="lnk16" id="link_Core_DB"><path d="M449.0855,337.403 C471.3755,349.073 495.77,359.76 524,366 C599.76,382.74 683.2143,381.4238 743.3843,377.2638" fill="none" id="Core-DB" style="stroke:#1E88E5;stroke-width:1;"/><polygon fill="#1E88E5" points="443.77,334.62,449.888,342.3382,448.1996,336.9391,453.5986,335.2508,443.77,334.62" style="stroke:#1E88E5;stroke-width:1;"/><polygon fill="#1E88E5" points="749.37,376.85,740.1155,373.4803,744.3819,377.1949,740.6673,381.4612,749.37,376.85" style="stroke:#1E88E5;stroke-width:1;"/><text fill="#000000" font-family="sans-serif" font-size="14" font-weight="bold" lengthAdjust="spacing" textLength="15.0596" x="525" y="361.9951">3.</text><text fill="#000000" font-family="sans-serif" font-size="14" lengthAdjust="spacing" textLength="162.2715" x="544.5098" y="361.9951">DB Storage &amp; Retrieval</text></g><!--SRC=[VLDRSz9057xVNt46PzeNgOKMRJiCCzoYMAoHe3we3uVa03iDkxYxQKN7_-vU85nQJ2OFsVs-xzo-SmhLQXNUvdA2EIHcbPE64nZYIXR6NJ5zpyKI5Iv0pp6JZrpCmAY2TYuoccAHcqWASuSBWaf2CqdmUV0IsefZNdaUc_3V1BLBjdEBgP4A_Z2mpmJJ-vcIXSYwChUdB_eNKJtgXJkfCbBhyyjwkn4rsDyTdK9JYfgEAdNxKLHxgdH-_kRwTMVdV8GPBpJKplVKqrmMsJ7jgE7UfzhNVVVkwMHeSFA_D8yKNEjVNVNt2rvQBivAfID5JMtNZvKwdlFqNf3MSF5C0-esMavJ0qQ2uhEvWOmhIWsNWh5Jxw6kN2ob864qz6ZA1NUNta8iZBNIdBJQ0sXhpRL1OPgl9gtlegcj3MvgzTR0CT1O_odwMP0skWAejt36DaKweQye-Atzu4CtXeJK0ocdL_4Ts8pV0IFKfXqF3eAz6uzZ62iKUYcLyO7AlmE1Tc7cjYgUeYleGCSgmosju0lcFFE0aBJb7CXqfI8OoXbF3oI6HEdSjio4Tdg-0n-c4IVfdB8Y3uNk27HAtq2o4gaNAB5sRcog_5RsVnbI0dCTcXHSlDVBXpgiM-L5DkSMN5hLuMEfpKnHyca8lKw9xdLShE25deL3bCj7MuaGeJ3jlL2E4whVrflxezhQDXzkm4QedJbPU9zylAkEuYwCWYFO5hR7tefwzcLWnqgcri-K-NGOynEmlB29ZbSMxcbr33mtqqt0iezmLXBFdX0dQs9XvC8wECo1bQ2zc3wB6nZXurPb9x-c1OVzTk1U9qIu207iRs8toUt0YKtHA4uFcFy3]--></g></svg>